<svg fill="#4CAF50" width="30px" height="30px" viewBox="0 0 512 512" version="1.1" xml:space="preserve" xmlns="http://www.w3.org/2000/svg" xmlns:xlink="http://www.w3.org/1999/xlink">
<path d="M256,463.515c-0.865,0-1.729-0.224-2.504-0.672L35.694,336.835c-1.545-0.894-2.496-2.543-2.496-4.328     s0.951-3.435,2.496-4.328l66.121-38.254c2.392-1.383,5.449-0.565,6.832,1.824c1.383,2.391,0.566,5.449-1.824,6.832l-58.64,33.926     L256,452.738l207.817-120.231l-58.641-33.926c-2.391-1.383-3.207-4.441-1.824-6.832c1.383-2.39,4.442-3.207,6.832-1.824     l66.121,38.254c1.545,0.894,2.496,2.543,2.496,4.328s-0.951,3.435-2.496,4.328L258.504,462.843     C257.729,463.291,256.865,463.515,256,463.515z" id="5_"/>
<path d="M256,387.007c-0.865,0-1.729-0.224-2.504-0.672L35.694,260.328c-1.545-0.894-2.496-2.543-2.496-4.328     c0-1.785,0.951-3.434,2.496-4.328l66.121-38.253c2.392-1.383,5.449-0.565,6.832,1.824c1.383,2.39,0.566,5.449-1.824,6.832     L48.183,256L256,376.23L463.817,256l-58.641-33.925c-2.391-1.383-3.207-4.442-1.824-6.832c1.383-2.39,4.442-3.207,6.832-1.824     l66.121,38.253c1.545,0.894,2.496,2.543,2.496,4.328c0,1.785-0.951,3.435-2.496,4.328L258.504,386.335     C257.729,386.783,256.865,387.007,256,387.007z" id="4_"/>
<path d="M256,310.5c-0.865,0-1.729-0.224-2.504-0.672L35.694,183.821c-1.545-0.894-2.496-2.543-2.496-4.328     s0.951-3.434,2.496-4.328L253.496,49.158c1.549-0.896,3.459-0.896,5.008,0l217.802,126.007c1.545,0.894,2.496,2.543,2.496,4.328     s-0.951,3.434-2.496,4.328L258.504,309.828C257.729,310.276,256.865,310.5,256,310.5z M48.183,179.493L256,299.724     l207.817-120.23L256,59.262L48.183,179.493z" id="1_"/>
</svg>